<?xml version="1.0" encoding="UTF-8"?>
<!DOCTYPE svg PUBLIC "-//W3C//DTD SVG 1.1//EN" "http://www.w3.org/Graphics/SVG/1.1/DTD/svg11.dtd">
<!-- Creator: CorelDRAW X7 -->
<svg xmlns="http://www.w3.org/2000/svg" xml:space="preserve" width="3000px" height="3000px" version="1.1" style="shape-rendering:geometricPrecision; text-rendering:geometricPrecision; image-rendering:optimizeQuality; fill-rule:evenodd; clip-rule:evenodd"
viewBox="0 0 3000 3000"
 xmlns:xlink="http://www.w3.org/1999/xlink">
 <defs>
  <style type="text/css">
   <![CDATA[
    .fil4 {fill:none}
    .fil1 {fill:#09821A}
    .fil3 {fill:#C5D85A}
    .fil0 {fill:#060947;fill-rule:nonzero}
    .fil2 {fill:#C5D85A;fill-rule:nonzero}
   ]]>
  </style>
 </defs>
 <g id="Layer_x0020_1">
  <metadata id="CorelCorpID_0Corel-Layer"/>
  <g id="_1845080768368">
   <path class="fil0" d="M688 2870c8,-12 12,-30 12,-50l0 -30c0,-8 0,-19 -1,-29 0,-11 -1,-20 -3,-24 -1,-1 -3,-2 -4,-3 -3,-1 -5,-1 -8,-2l-6 0 -1 0 0 0 0 -1 0 0c-1,-1 -1,-2 -1,-3 0,-2 1,-3 2,-3l0 0 0 -1 0 0 0 0c5,1 10,1 14,1 5,0 9,0 14,0 5,0 10,0 14,0 4,0 7,0 12,-1l0 0 0 0 1 1 0 0c1,0 1,2 1,3 0,1 0,2 -1,3l0 0c0,0 0,1 0,1l0 0 -1 0 -5 0 0 0c-3,1 -6,1 -8,2 -2,1 -3,3 -4,4 -3,8 -3,38 -3,52l0 29c0,11 -1,23 -4,34 -2,10 -7,20 -14,28l0 0c-5,6 -12,11 -20,14 -8,3 -18,5 -27,5 -8,0 -17,-1 -25,-3 -8,-2 -15,-6 -21,-11 -7,-6 -12,-14 -15,-24 -3,-10 -5,-22 -5,-37l0 -61c0,-13 0,-21 -2,-25 -1,-5 -5,-6 -12,-7l0 0 -6 0 0 0 0 0c0,0 -1,-1 -1,-1 0,-1 0,-2 0,-3l0 0c0,-1 0,-2 1,-3 0,0 0,0 1,-1l0 0 0 0c6,1 11,1 16,1 5,0 9,0 14,0 5,0 10,0 14,0 5,0 10,0 16,-1l0 0 1 0c0,1 0,1 0,1 1,1 1,2 1,3l0 0c0,1 0,2 0,3l0 0c0,0 -1,1 -1,1l0 0 0 0 -6 0 0 0c-7,1 -10,2 -12,7 -2,4 -2,12 -2,25l0 55c0,21 3,38 11,50 7,12 19,18 38,18 16,0 28,-6 36,-17zm76 12c2,-5 2,-12 2,-26l0 -91c0,-14 0,-22 -2,-26 -2,-4 -5,-6 -12,-6l0 0 -6 -1 -1 0 0 0c0,0 0,0 -1,-1l0 0c0,-1 0,-2 0,-3 0,-1 0,-2 1,-3l0 0c0,0 0,0 1,-1l0 0 0 0c6,1 11,1 16,1 5,0 10,0 15,0 5,0 9,0 14,0 5,0 10,0 16,-1l0 0 1 0c0,1 0,1 0,1 1,1 1,2 1,3 0,1 0,2 0,3l0 0c0,1 -1,1 -1,1l0 0 0 0 -6 1 0 0c-7,0 -11,2 -13,6 -1,4 -2,12 -2,26l0 91c0,14 1,21 2,26 2,4 6,5 13,6l0 0 6 1 0 0 0 0c0,0 1,0 1,1 0,0 0,2 0,3l0 0c0,1 0,2 -1,3 0,0 0,0 0,1l-1 0 0 0c-6,-1 -11,-1 -16,-1 -5,0 -9,0 -14,0 -5,0 -10,0 -15,0 -5,0 -10,0 -16,1l0 0 0 0c0,-1 -1,-1 -1,-1l0 0c0,0 -1,-2 -1,-3 0,-1 0,-2 1,-3 0,-1 0,-1 0,-1l0 0 0 0 7 -1 0 0c7,-1 10,-2 12,-6zm218 -95l0 3 0 0 0 62c0,3 0,13 0,22 0,10 0,19 0,22l0 1 0 0c0,1 -1,2 -2,2l0 0c-1,1 -2,1 -3,1l0 0 -1 0c-1,-2 -4,-6 -8,-12 -5,-6 -12,-14 -23,-27l-57 -68 0 0c-2,-3 -6,-7 -10,-12 -6,-9 -14,-18 -17,-22 -1,2 -1,3 -1,6 0,3 0,6 0,10l0 56c0,6 0,17 0,28 1,11 2,21 4,24l0 0c0,2 2,3 4,3 2,1 5,2 8,2l0 0 7 1 1 0 0 0c1,1 1,3 1,4 0,1 -1,3 -2,3l0 1 0 0c-6,-1 -11,-1 -15,-1 -5,0 -9,0 -14,0 -5,0 -9,0 -13,0 -4,0 -8,0 -12,1l0 0 -1 -1c0,0 0,0 0,0 -1,-1 -1,-2 -1,-3 -1,-1 0,-3 0,-4l0 0c1,0 1,0 1,0l0 0 0 0 7 -1 0 0c3,0 5,-1 7,-2l0 0c1,-1 2,-1 3,-3l0 0c3,-8 3,-36 3,-50l0 -2 0 0 0 -74c0,-4 0,-7 -1,-10 0,-3 -2,-6 -4,-8 -2,-2 -4,-3 -6,-4 -3,-1 -6,-2 -9,-2l0 0 -4 -1 0 0 0 0c-1,0 -1,-1 -1,-1l0 0c-1,-1 -1,-2 -1,-3 0,-1 1,-2 2,-3l0 0c0,0 0,0 0,-1l0 0 1 0c10,1 23,1 27,1 2,0 4,0 6,0 2,0 4,0 5,-1l1 0 0 1c5,13 33,46 41,56l0 0 1 0 0 0 24 28 8 10c13,15 22,26 32,36 0,-2 0,-5 0,-10l0 -55c0,-6 0,-17 -1,-28 0,-11 -1,-21 -4,-25 0,-1 -2,-1 -4,-2 -2,-1 -5,-2 -10,-2l0 0 -4 -1 -1 0 0 0c0,0 -1,-1 -1,-2 0,0 0,-1 0,-2 0,-1 0,-2 1,-3l0 0c0,0 0,0 1,-1l0 0 0 0c6,1 11,1 15,1 5,0 9,0 14,0 5,0 10,0 13,0 4,0 8,0 12,-1l0 0 1 0c0,1 0,1 0,1 1,1 1,2 1,3 1,1 0,3 0,3l0 0c-1,1 -1,1 -1,1l0 0 0 0 -4 1 0 0c-3,0 -6,1 -9,2 -2,1 -3,2 -4,3 -4,8 -3,35 -3,49zm187 34c5,8 9,18 9,31 0,14 -5,26 -14,35 -9,8 -23,13 -39,13 -10,0 -18,-2 -25,-4 -6,-2 -11,-4 -13,-6l0 0 0 0c-2,-3 -3,-9 -5,-15 -1,-7 -2,-15 -2,-21l0 0 0 -1c0,0 1,0 1,-1 1,0 2,0 3,-1 1,0 2,1 3,1l0 0c0,0 0,0 0,1l0 0 0 0c2,6 5,16 12,24 6,7 16,14 30,14 9,0 16,-3 21,-8 6,-6 8,-13 8,-21 0,-6 0,-12 -3,-18 -2,-6 -7,-12 -16,-18l0 0 -23 -15 0 0c-7,-5 -15,-12 -20,-21 -4,-7 -7,-15 -7,-24 0,-13 5,-25 14,-33 9,-7 21,-12 36,-12 4,0 8,0 12,1 4,0 8,1 11,2l0 0c2,1 3,1 5,1 1,1 3,1 4,1l0 0 0 0c2,4 3,9 4,15 0,6 1,12 1,17l0 0 0 0c0,1 -1,1 -1,1 -1,1 -2,1 -3,1 -1,0 -2,0 -3,0l0 0c0,0 0,-1 -1,-1l0 0 0 0c-1,-6 -4,-13 -9,-19 -4,-6 -12,-10 -23,-10 -10,0 -17,3 -21,8 -6,5 -8,13 -8,20 0,6 2,12 6,17 4,6 10,11 15,14l0 0 19 13 0 0c8,5 16,11 22,19zm156 49c9,-12 13,-30 13,-50l0 -30c0,-8 -1,-19 -1,-29 -1,-11 -2,-20 -4,-24 -1,-1 -2,-2 -4,-3 -2,-1 -5,-1 -8,-2l-6 0 0 0 0 0 0 -1 0 0c-1,-1 -1,-2 -1,-3 0,-2 0,-3 1,-3l0 0 0 -1 1 0 0 0c4,1 9,1 14,1 4,0 9,0 14,0 5,0 9,0 13,0 4,0 8,0 12,-1l1 0 0 0 0 1 0 0c1,0 1,2 1,3l0 0c1,1 0,2 0,3l0 0c0,0 -1,1 -1,1l0 0 0 0 -6 0 0 0c-3,1 -6,1 -8,2 -2,1 -3,3 -4,4l0 0c-3,8 -3,38 -3,52l0 29c0,11 -1,23 -3,34 -3,10 -7,20 -14,28l0 0c-6,6 -13,11 -21,14 -8,3 -17,5 -27,5 -8,0 -17,-1 -24,-3 -8,-2 -16,-6 -22,-11 -6,-6 -11,-14 -14,-24 -4,-10 -5,-22 -5,-37l0 -61c0,-13 0,-21 -2,-25 -2,-5 -5,-6 -12,-7l0 0 -6 0 0 0 -1 0c0,0 0,-1 0,-1 -1,-1 -1,-2 -1,-3l0 0c0,-1 1,-2 1,-3l0 0c0,0 1,0 1,-1l0 0 0 0c6,1 12,1 16,1 5,0 10,0 15,0 5,0 9,0 14,0 5,0 10,0 16,-1l0 0 0 0c0,1 1,1 1,1l0 0c0,1 1,2 1,3 0,1 0,2 -1,3 0,0 0,1 0,1l-1 0 0 0 -6 0 0 0c-6,1 -10,2 -12,7 -1,4 -2,12 -2,25l0 55c0,21 3,38 11,50 8,12 20,18 38,18 17,0 28,-6 36,-17zm146 -49c6,8 9,18 9,31 0,14 -5,26 -14,35 -9,8 -22,13 -38,13 -11,0 -19,-2 -26,-4 -6,-2 -11,-4 -13,-6l0 0 0 0c-2,-3 -3,-9 -4,-15 -2,-7 -3,-15 -3,-21l0 0 0 -1c1,0 1,0 1,-1 1,0 2,0 3,-1 1,0 2,1 3,1 0,0 0,0 0,1l0 0 0 0c2,6 6,16 12,24 6,7 16,14 30,14 9,0 16,-3 21,-8 6,-6 9,-13 9,-21 0,-6 -1,-12 -4,-18 -2,-6 -7,-12 -16,-18l0 0 -23 -15 0 0c-7,-5 -15,-12 -20,-21 -4,-7 -7,-15 -7,-24 0,-13 5,-25 14,-33 9,-7 21,-12 37,-12 3,0 7,0 11,1 4,0 8,1 11,2l0 0c2,1 3,1 5,1 1,1 3,1 4,1l0 0 0 0c2,4 3,9 4,15 0,6 1,12 1,17l0 0 0 0c0,1 -1,1 -1,1 -1,1 -2,1 -3,1 -1,0 -2,0 -3,0l0 0c0,0 0,-1 0,-1l-1 0 0 0c-1,-6 -4,-13 -8,-19 -5,-6 -13,-10 -24,-10 -10,0 -17,3 -21,8l0 0c-6,5 -8,13 -8,20 0,6 3,12 6,17 4,6 10,11 15,14l0 0 19 13 0 0c8,5 16,11 22,19zm50 61c2,-5 2,-12 2,-25l0 -93c0,-13 0,-21 -2,-25 -2,-4 -5,-6 -12,-6l0 0 -6 -1 0 0 -1 0c0,0 0,0 0,-1l0 0c-1,-1 -1,-2 -1,-3 0,-1 1,-2 1,-3l0 0c0,0 1,0 1,-1l0 0 0 0c6,1 11,1 16,1 5,0 10,0 15,0 5,0 10,0 14,0 5,0 9,0 15,-1l0 0 0 0c0,1 1,1 1,1l0 0c0,1 1,2 1,3 0,1 0,2 -1,3l0 0c0,1 0,1 -1,1l0 0 0 0 -4 1 0 0c-7,0 -11,2 -13,6 -1,4 -2,12 -2,25l0 30c0,2 1,5 1,6 0,2 1,3 2,3 1,0 2,0 3,-1 1,0 2,-1 3,-2 2,-2 6,-5 8,-8 2,-1 4,-3 5,-4l26 -28 0 0c3,-2 7,-7 12,-12 3,-4 6,-7 7,-9 1,-1 1,-1 1,-2l0 0c1,-1 1,-1 1,-1 0,-1 0,-1 -1,-1 0,-1 -1,-1 -3,-1l0 0 -6 -2 -1 0 0 0c0,0 0,0 0,-1l0 0c-1,-1 -1,-2 -1,-3 0,-1 0,-2 1,-3 0,0 1,0 1,-1l0 0 0 0c4,1 9,1 13,1 5,0 10,0 14,0 4,0 9,0 13,0 4,0 8,0 11,-1l1 0 0 0c0,1 0,1 0,1l0 0c1,1 1,2 1,3 1,1 0,3 0,4l0 0c0,0 -1,0 -1,0l0 0 0 0c-3,0 -8,1 -12,3 -4,1 -7,2 -11,4 -3,2 -8,6 -14,11 -6,5 -13,12 -20,19l-22 22c-1,2 -3,3 -4,4 -1,1 -1,2 -1,3 0,1 0,2 1,3 1,1 2,3 3,5l0 0c5,5 8,9 12,13 18,22 34,41 50,59 2,3 5,5 8,7 3,1 7,2 11,3l2 0 2 0 0 0c3,0 6,-1 8,-3 2,-2 5,-5 6,-9l0 0c2,-4 3,-8 5,-12 4,-11 10,-25 17,-45l0 0 25 -70 0 0c1,-4 3,-8 3,-11 1,-2 1,-4 1,-6l0 -1 0 0c3,-1 6,-3 8,-4 2,-2 3,-4 5,-6l0 0 0 0c1,0 2,0 3,1 1,0 1,1 2,2l0 0c2,10 6,20 9,30l1 4 34 103 0 0c3,11 6,18 9,21 3,4 6,5 11,6l7 1 0 0 0 0c0,0 0,0 0,0l0 0c1,1 1,2 1,4 0,1 0,2 -1,3 0,0 0,0 0,0l0 1 0 0c-5,-1 -10,-1 -15,-1 -5,0 -9,0 -15,0 -10,0 -18,0 -25,1l-3 0 0 0 0 0c-1,-1 -1,-1 -2,-1l0 0c0,-1 0,-2 -1,-3 0,-1 1,-2 1,-3l0 0c0,0 1,-1 1,-1l0 0 0 0 7 -1 0 0c3,0 5,-1 6,-2 2,0 2,-1 2,-2 0,-1 0,-3 -1,-5 0,-3 -1,-5 -2,-8l0 0 -11 -35 0 0c0,-3 -1,-4 -2,-5 -1,-1 -3,-1 -7,-1l-37 0c-3,0 -5,0 -6,1l0 0c-1,1 -2,2 -3,5l0 0 -8 27c-2,5 -3,10 -4,13 -1,4 -1,6 -1,8 0,1 0,2 1,3 1,0 2,1 5,1l0 0 8 1 0 0 0 0c1,0 1,1 1,1l0 0c1,1 1,2 1,3l0 0c0,1 0,2 -1,3 0,0 -1,0 -1,1l0 0 -1 0c-4,-1 -9,-1 -15,-1 -3,0 -6,0 -10,0l0 0c-4,0 -9,0 -14,0 0,0 0,0 0,1l0 0 0 0c-1,0 -3,-1 -4,-1l-2 0 -3 1 -1 0 0 -1c0,0 0,0 0,0l-2 0c-5,0 -10,0 -16,0 -5,0 -9,0 -14,0 -5,0 -10,0 -16,1l0 0 0 0c0,-1 0,-1 -1,-1 0,-1 -1,-2 -1,-3 0,-1 0,-2 0,-3 0,0 1,-1 1,-1l0 0 0 0 6 -1 0 0c2,-1 3,-1 4,-1 1,-1 1,-1 1,-1 0,-1 -1,-3 -2,-5l-1 -1 0 0c-3,-4 -7,-8 -12,-13 -2,-3 -5,-7 -8,-11l-20 -23 -3 -3c-11,-14 -15,-18 -20,-18 -2,0 -2,1 -3,2 0,2 -1,5 -1,10l0 33c0,13 1,21 2,25 2,4 5,5 12,6l0 0 7 1 0 0 0 0c0,0 0,0 1,1 0,0 0,2 0,3 0,1 0,2 -1,3 0,0 0,0 -1,1l0 0 0 0c-6,-1 -11,-1 -16,-1 -4,0 -9,0 -14,0 -5,0 -9,0 -14,0 -5,0 -9,0 -14,1l0 0 0 0c-1,-1 -1,-1 -1,-1l0 0c-1,0 -1,-1 -1,-3 0,-1 0,-2 0,-3l0 0c0,-1 1,-1 1,-1l0 0 0 0 5 -1c6,-1 10,-2 11,-6zm132 13c2,0 4,0 5,0l4 0c0,-1 0,-1 0,-2 1,-1 0,-2 0,-2l0 0c0,-1 0,-1 0,-1l-4 0 -6 0 0 0 0 0c0,1 0,2 0,3 0,0 0,1 1,2zm75 -136c-1,2 -2,6 -3,9l0 0 -16 45 0 0c-1,3 -1,4 -1,5 1,0 3,0 6,0l30 0c3,0 5,0 5,-1l0 0c1,-1 1,-3 0,-6l0 0 -14 -42c-1,-3 -2,-6 -3,-9 0,-2 -1,-4 -2,-6 0,1 -1,3 -2,5zm172 123c2,-5 2,-12 2,-25l0 -92c0,-13 -1,-20 -2,-24 -1,-4 -4,-5 -8,-6l0 0 -8 -1 -1 0 0 0c0,0 0,-1 -1,-1 0,-1 0,-2 0,-3 0,-1 0,-2 1,-3 0,0 0,0 1,-1l0 0 0 0c7,0 14,-1 23,-1 9,0 20,-1 32,-1 7,0 15,1 22,2 7,1 13,3 19,6 6,4 11,8 15,15 3,6 5,13 5,22 0,10 -3,19 -8,25 -6,9 -15,15 -22,18 -1,1 -1,1 0,2l0 0c0,1 0,2 1,3 10,17 18,30 26,41 7,11 15,20 23,27l0 0c2,2 5,4 8,5 2,1 5,2 8,2l1 0 0 0c0,1 0,1 1,1 -1,-1 0,-2 0,-3 0,-1 0,-1 1,-1l0 0 0 0 6 -1 0 0c7,-1 11,-2 12,-6 2,-5 2,-12 2,-26l0 -91c0,-14 0,-22 -2,-26 -1,-4 -5,-6 -12,-6l0 0 -6 -1 0 0 0 0c-1,0 -1,0 -1,-1l0 0c0,-1 -1,-2 0,-3 0,-1 0,-2 0,-3l0 0c1,0 1,0 1,-1l0 0 1 0c6,1 11,1 16,1 5,0 9,0 14,0 5,0 10,0 15,0 4,0 10,0 16,-1l0 0 0 0c0,1 1,1 1,1 0,1 1,2 1,3 0,1 0,2 -1,3l0 0c0,1 0,1 0,1l-1 0 0 0 -6 1 0 0c-7,0 -10,2 -12,6 -2,4 -2,12 -2,26l0 91c0,14 0,21 2,26 2,4 5,5 12,6l0 0 6 1 1 0 0 0c0,0 0,0 0,1 1,0 1,2 1,3l0 0c0,1 -1,2 -1,3 0,0 -1,0 -1,1l0 0 0 0c-6,-1 -12,-1 -16,-1 -5,0 -10,0 -15,0 -5,0 -9,0 -14,0 -5,0 -10,0 -16,1l-1 0 0 0c0,-1 0,-1 0,-1l0 0c0,0 -1,0 -1,-1 0,1 0,1 0,1 0,1 -1,1 -1,1l0 0 0 0c-1,1 -3,1 -5,1 -2,1 -4,1 -6,1 -11,0 -19,-2 -27,-7 -8,-5 -16,-13 -24,-26 -4,-5 -8,-12 -12,-19 -4,-7 -9,-14 -12,-20l0 0c-2,-2 -4,-4 -6,-6 -3,-1 -6,-2 -11,-2 -5,0 -8,0 -10,1 -1,1 -1,2 -1,4l0 33c0,13 0,20 2,25 2,4 5,5 12,6l0 0 5 1 1 0 0 0c0,0 0,0 0,1 1,1 1,2 1,3 0,1 -1,2 -1,3 0,0 -1,0 -1,1l0 0 0 0c-6,-1 -11,-1 -15,-1 -5,0 -9,0 -14,0 -6,0 -10,0 -15,0 -5,0 -10,0 -16,1l0 0 0 0c0,-1 -1,-1 -1,-1l0 0c0,0 -1,-1 -1,-3 0,-1 0,-2 1,-3l0 0c0,-1 0,-1 0,-1l0 0 0 0 7 -1c6,-1 10,-2 12,-6zm25 -147c-2,1 -2,3 -2,6l0 60c0,3 0,4 0,6 0,1 0,2 1,2 0,1 1,1 3,1 3,0 7,0 13,0 4,0 9,0 13,-1 4,-1 8,-2 12,-5l0 0c3,-3 6,-6 8,-11 2,-5 4,-12 4,-20 0,-11 -4,-22 -11,-29 -6,-6 -15,-10 -28,-10 -7,0 -11,0 -13,1zm298 144c0,-3 -1,-5 -2,-8l0 0 -11 -35 0 0c0,-3 -1,-4 -2,-5 -1,-1 -3,-1 -7,-1l-37 0c-3,0 -5,0 -6,1 -1,1 -2,2 -3,5l0 0 -8 27c-2,5 -3,10 -4,13 -1,4 -1,6 -1,8 0,1 0,2 1,3 1,0 2,1 5,1l0 0 8 1 0 0 0 0c1,0 1,1 1,1l0 0c1,1 1,2 1,3l0 0c0,1 0,2 -1,3 0,0 -1,0 -1,1l0 0 -1 0c-4,-1 -9,-1 -15,-1 -3,0 -6,0 -10,0l0 0c-7,0 -14,0 -20,0l-3 1 -1 0 0 -1c0,0 0,0 0,0 -1,-1 -1,-2 -1,-3l0 0c-1,-1 0,-3 0,-4l0 0c0,0 0,0 1,0l0 0 0 0 8 -1 0 0c3,0 6,-1 8,-3 2,-2 5,-5 6,-9l0 0c2,-4 3,-8 5,-12 4,-11 10,-25 17,-45l0 0 25 -70 0 0c1,-4 3,-8 3,-11 1,-2 1,-4 1,-6l0 -1 0 0c3,-1 6,-3 8,-4l0 0c2,-2 3,-4 5,-6l0 0 0 0c1,0 2,0 3,1 1,0 1,1 2,2l0 0c2,10 6,20 9,30l1 4 34 103 0 0c3,11 6,18 9,21 3,4 6,5 11,6l7 1 0 0 0 0c0,0 0,0 0,0l0 0c1,1 1,2 1,4 0,1 0,2 -1,3l0 0c0,0 0,0 0,0l0 1 0 0c-5,-1 -10,-1 -15,-1 -5,0 -9,0 -15,0 -10,0 -18,0 -25,1l-3 0 0 0 0 0c-1,-1 -1,-1 -2,-1l0 0c0,-1 0,-2 0,-3 -1,-1 0,-2 0,-3l0 0c0,0 1,-1 1,-1l0 0 0 0 7 -1 0 0c3,0 5,-1 6,-2 2,0 2,-1 2,-2 0,-1 0,-3 -1,-5zm-41 -120c-1,2 -2,6 -3,9l0 0 -16 45c-1,3 -1,4 -1,5 1,0 3,0 6,0l30 0c3,0 5,0 5,-1l0 0c1,-1 1,-3 0,-6l0 0 -14 -42 0 0 0 0 0 0c-1,-5 -3,-11 -5,-15 0,1 -1,3 -2,5zm212 111c9,-12 12,-30 12,-50l0 -30c0,-8 0,-19 0,-29 -1,-11 -2,-20 -4,-24 -1,-1 -2,-2 -4,-3 -2,-1 -5,-1 -8,-2l-6 0 0 0 -1 0 0 -1 0 0c0,-1 -1,-2 -1,-3 1,-2 1,-3 2,-3l0 0 0 -1 0 0 1 0c4,1 9,1 13,1 5,0 10,0 14,0 6,0 10,0 14,0 4,0 8,0 12,-1l0 0 0 0 1 1 0 0c1,0 1,2 1,3 0,1 0,2 -1,3l0 0c0,0 0,1 0,1l0 0 0 0 -6 0 0 0c-3,1 -6,1 -8,2 -2,1 -3,3 -4,4 -3,8 -3,38 -3,52l0 29c0,11 -1,23 -4,34 -2,10 -7,20 -14,28l0 0c-5,6 -12,11 -20,14 -8,3 -17,5 -27,5 -8,0 -17,-1 -25,-3 -8,-2 -15,-6 -21,-11 -7,-6 -11,-14 -15,-24 -3,-10 -4,-22 -4,-37l0 -61c0,-13 0,-21 -2,-25 -2,-5 -6,-6 -12,-7l0 0 -6 0 -1 0 0 0c0,0 0,-1 -1,-1l0 0c0,-1 0,-2 0,-3l0 0c0,-1 0,-2 1,-3 0,0 0,0 1,-1l0 0 0 0c6,1 11,1 16,1 5,0 9,0 14,0 5,0 10,0 15,0 4,0 9,0 15,-1l1 0 0 0c0,1 0,1 1,1 0,1 0,2 1,3l0 0c0,1 0,2 -1,3 0,0 0,1 -1,1l0 0 0 0 -6 0 0 0c-7,1 -10,2 -12,7 -2,4 -2,12 -2,25l0 55c0,21 3,38 11,50 7,12 20,18 38,18 17,0 28,-6 36,-17z"/>
   <g>
    <polygon class="fil1" points="2419,481 1724,481 1817,574 2419,574 "/>
    <path class="fil1" d="M1500 100l346 346 -157 0 -189 -189 -317 317 -102 0 0 239 -147 118 -199 0 0 -450 384 0 381 -381zm-651 474l115 0 0 209 -115 73 0 -282z"/>
    <polygon class="fil1" points="2419,481 1724,481 1817,574 2419,574 "/>
    <polygon class="fil1" points="581,481 581,1176 675,1082 675,481 "/>
    <g>
     <path class="fil1" d="M201 1399l346 -346 0 157 -189 189 317 317 0 103 238 0 119 147 0 198 -451 0 0 -384 -380 -381zm474 651l0 -114 208 0 74 114 -282 0z"/>
     <polygon class="fil1" points="581,2318 1276,2318 1183,2225 581,2225 "/>
    </g>
    <path class="fil1" d="M2799 1399l-346 346 0 -157 189 -189 -317 -317 0 -102 -238 0 -119 -147 0 -199 451 0 0 385 380 380zm-474 -651l0 115 -208 0 -74 -115 282 0z"/>
    <g>
     <path class="fil1" d="M1500 2699l-346 -346 157 0 189 189 317 -317 102 0 0 -239 147 -118 199 0 0 450 -384 0 -381 381zm651 -474l-115 0 0 -209 115 -73 0 282z"/>
     <polygon class="fil1" points="2419,2318 2419,1623 2325,1716 2325,2318 "/>
    </g>
    <g>
     <polygon class="fil1" points="1347,495 1447,395 1447,843 1553,843 1553,395 1653,495 1653,842 1554,932 1446,932 1347,842 "/>
     <path class="fil1" d="M1860 634l-102 0 0 84 102 0 0 -84zm370 438l89 89 -291 0 0 -89 202 0zm-472 -123l0 -72 87 0 0 103 46 0 0 -103 101 130 0 154 -101 0 0 -107 -46 0 -87 -105zm102 -189l-102 0 0 84 102 0 0 -84z"/>
     <path class="fil1" d="M739 1035l0 103 84 0 0 -103 -84 0zm438 -370l89 -89 0 292 -89 0 0 -203zm-123 473l-73 0 0 -88 103 0 0 -46 -103 0 131 -101 154 0 0 101 -107 0 0 46 -105 88zm-189 -103l0 103 84 0 0 -103 -84 0z"/>
    </g>
    <polygon class="fil1" points="1653,2303 1553,2404 1553,1956 1447,1956 1447,2404 1347,2303 1347,1957 1446,1866 1554,1866 1653,1957 "/>
    <polygon class="fil1" points="596,1552 495,1452 943,1452 943,1347 495,1347 596,1246 942,1246 1033,1345 1033,1453 942,1552 "/>
    <polygon class="fil1" points="2404,1552 2505,1452 2057,1452 2057,1346 2505,1346 2404,1246 2058,1246 1967,1345 1967,1453 2058,1552 "/>
    <path class="fil1" d="M1140 2164l102 0 0 -84 -102 0 0 84zm-370 -438l-89 -89 291 0 0 89 -202 0zm472 123l0 73 -87 0 0 -103 -46 0 0 103 -102 -131 0 -154 102 0 0 107 46 0 87 105zm-102 189l102 0 0 -84 -102 0 0 84z"/>
    <path class="fil1" d="M2261 1763l0 -102 -84 0 0 102 84 0zm-438 370l-89 89 0 -291 89 0 0 202zm123 -472l72 0 0 87 -102 0 0 46 102 0 -130 102 -154 0 0 -102 107 0 0 -46 105 -87zm189 102l0 -102 -84 0 0 102 84 0z"/>
   </g>
   <g>
    <g>
     <path class="fil2" d="M1370 1263l0 0c87,-88 181,-153 261,-188 83,-35 152,-39 189,-2l0 0 0 0c37,37 33,106 -2,189 -35,80 -100,174 -188,261l0 0 0 0c-87,88 -181,153 -261,188 -83,35 -152,39 -189,2l0 0 0 0c-37,-37 -33,-106 2,-189 35,-80 100,-174 188,-261l0 0zm10 10l0 0 0 0c-86,86 -151,178 -185,257 -33,77 -37,140 -5,173l0 0 0 0c33,32 96,28 173,-5 79,-34 171,-99 257,-185l0 0 0 0c86,-86 151,-178 185,-257 33,-77 37,-140 5,-173l0 0 0 0c-33,-32 -96,-28 -173,6 -79,33 -171,98 -257,184z"/>
     <path class="fil2" d="M1390 1283l0 0c74,-74 153,-129 221,-158 69,-30 128,-33 159,-2l0 0 0 0c31,31 28,90 -2,159 -29,68 -84,147 -158,221l0 0 0 0c-74,74 -153,129 -221,158 -69,30 -128,33 -159,2l0 0 0 0c-31,-31 -28,-89 2,-159 29,-68 84,-147 158,-221l0 0zm8 8l0 0 0 0c-73,73 -127,151 -156,217 -28,66 -32,120 -4,147l0 0 0 0c27,28 81,24 147,-4 66,-29 144,-83 217,-156l0 0 0 0c73,-73 127,-151 156,-217 28,-66 32,-120 4,-147l0 0 0 0c-27,-28 -81,-24 -147,4 -66,29 -144,83 -217,156z"/>
     <path class="fil2" d="M1408 1302l0 0c63,-63 129,-109 186,-133 58,-25 106,-28 132,-2 26,26 23,74 -2,132 -24,57 -70,123 -132,186l0 0 0 0c-63,62 -129,108 -186,132 -58,25 -106,28 -132,2 -26,-26 -23,-74 2,-132 24,-57 70,-123 132,-185l0 0zm6 5l0 0 0 0c-62,61 -107,126 -132,183 -23,55 -26,101 -3,124 23,23 69,20 124,-3 57,-24 122,-70 183,-132l0 0 0 0c62,-61 107,-126 132,-183 23,-55 26,-101 3,-124 -23,-23 -69,-20 -124,3 -57,25 -122,70 -183,132z"/>
     <path class="fil2" d="M1428 1321c49,-49 102,-86 147,-105 45,-20 84,-22 104,-2 20,20 18,59 -2,104 -19,45 -56,98 -105,147 -49,49 -102,86 -147,105 -45,20 -84,22 -104,2 -20,-20 -18,-59 2,-104 19,-45 56,-98 105,-147zm148 -102c-44,20 -97,56 -145,105 -49,49 -85,101 -105,145 -19,44 -21,81 -2,100 19,19 56,17 100,-2 44,-19 97,-56 145,-105 49,-48 85,-101 105,-145 19,-44 21,-81 2,-100 -19,-19 -56,-17 -100,2z"/>
     <path class="fil2" d="M1444 1337c38,-38 79,-67 114,-82 36,-15 66,-17 81,-1 16,15 14,45 -1,81 -15,35 -44,76 -82,114 -38,38 -79,67 -114,82 -36,15 -66,17 -81,1 -16,-15 -14,-45 1,-81 15,-35 44,-76 82,-114zm115 -79c-34,15 -75,43 -113,81 -38,38 -66,79 -81,114 -15,34 -17,63 -2,77 14,15 43,13 78,-2 34,-15 75,-43 113,-81 38,-38 66,-79 81,-113 15,-35 17,-64 2,-78 -14,-15 -43,-13 -78,2z"/>
     <path class="fil2" d="M1462 1355c26,-26 54,-45 78,-56 24,-10 44,-11 55,-1 10,11 9,31 -1,55 -11,24 -30,52 -56,78 -26,26 -54,45 -78,56 -24,10 -44,11 -55,1 -10,-11 -9,-31 1,-55 11,-24 30,-52 56,-78zm78 -54c-23,10 -51,29 -77,55 -26,26 -45,54 -55,77 -10,24 -12,43 -2,54 11,10 30,8 54,-2 23,-10 51,-29 77,-55 26,-26 45,-54 55,-77 10,-24 12,-43 2,-53 -11,-11 -30,-9 -54,1z"/>
     <path class="fil2" d="M1475 1368c17,-17 35,-30 51,-37 16,-6 29,-7 36,0 7,7 6,20 0,36 -7,16 -20,34 -37,51 -17,17 -35,30 -51,37 -16,7 -29,7 -36,0 -7,-7 -6,-20 0,-36 7,-16 20,-34 37,-51zm52 -35c-16,6 -34,19 -51,36 -17,17 -30,35 -36,51 -7,15 -8,28 -1,34 6,7 19,6 34,-1 16,-6 34,-19 51,-36 17,-17 30,-35 36,-51 7,-15 8,-28 1,-34 -6,-7 -19,-6 -34,1z"/>
     <path class="fil2" d="M1485 1379c10,-10 21,-18 30,-22 9,-4 17,-4 21,0 4,4 4,12 0,21 -4,9 -12,20 -21,30 -10,9 -21,17 -30,21 -9,4 -17,4 -21,0 -4,-4 -4,-12 0,-21 4,-9 12,-20 21,-29zm30 -21c-9,4 -19,12 -29,21 -9,10 -17,20 -21,29 -3,9 -4,16 0,20 4,4 11,3 20,0 9,-4 19,-11 29,-21 9,-10 17,-20 21,-29 3,-9 4,-16 0,-20 -4,-4 -11,-3 -20,0z"/>
    </g>
    <g>
     <path class="fil2" d="M1630 1263l0 0c-87,-88 -181,-153 -261,-188 -83,-35 -152,-39 -189,-2l0 0 0 0c-37,37 -33,106 2,189 35,80 100,174 188,261l0 0 0 0c87,88 181,153 261,188 83,35 152,39 189,2l0 0 0 0c37,-37 33,-106 -2,-189 -35,-80 -100,-174 -188,-261l0 0zm-10 10l0 0 0 0c86,86 151,178 185,257 33,77 37,140 5,173l0 0 0 0c-33,32 -96,28 -173,-5 -79,-34 -171,-99 -257,-185l0 0 0 0c-86,-86 -151,-178 -185,-257 -33,-77 -37,-140 -5,-173l0 0 0 0c33,-32 96,-28 173,6 79,33 171,98 257,184z"/>
     <path class="fil2" d="M1610 1283l0 0c-74,-74 -153,-129 -221,-158 -69,-30 -128,-33 -159,-2l0 0 0 0c-31,31 -28,90 2,159 29,68 84,147 158,221l0 0 0 0c74,74 153,129 221,158 69,30 128,33 159,2l0 0 0 0c31,-31 28,-89 -2,-159 -29,-68 -84,-147 -158,-221l0 0zm-8 8l0 0 0 0c73,73 127,151 156,217 28,66 32,120 4,147l0 0 0 0c-27,28 -81,24 -147,-4 -66,-29 -144,-83 -217,-156l0 0 0 0c-73,-73 -127,-151 -156,-217 -28,-66 -32,-120 -4,-147l0 0 0 0c27,-28 81,-24 147,4 66,29 144,83 217,156z"/>
     <path class="fil2" d="M1592 1302l0 0c-63,-63 -129,-109 -186,-133 -58,-25 -106,-28 -132,-2 -26,26 -23,74 2,132 24,57 70,123 132,186l0 0 0 0c63,62 129,108 186,132 58,25 106,28 132,2 26,-26 23,-74 -2,-132 -24,-57 -70,-123 -132,-185l0 0zm-6 5l0 0 0 0c62,61 107,126 132,183 23,55 26,101 3,124 -23,23 -69,20 -124,-3 -57,-24 -122,-70 -183,-132l0 0 0 0c-62,-61 -107,-126 -132,-183 -23,-55 -26,-101 -3,-124 23,-23 69,-20 124,3 57,25 122,70 183,132z"/>
     <path class="fil2" d="M1572 1321c-49,-49 -102,-86 -147,-105 -45,-20 -84,-22 -104,-2 -20,20 -18,59 2,104 19,45 56,98 105,147 49,49 102,86 147,105 45,20 84,22 104,2 20,-20 18,-59 -2,-104 -19,-45 -56,-98 -105,-147zm-148 -102c44,20 97,56 145,105 49,49 85,101 105,145 19,44 21,81 2,100 -19,19 -56,17 -100,-2 -44,-19 -97,-56 -145,-105 -49,-48 -85,-101 -105,-145 -19,-44 -21,-81 -2,-100 19,-19 56,-17 100,2z"/>
     <path class="fil2" d="M1556 1337c-38,-38 -79,-67 -114,-82 -36,-15 -66,-17 -81,-1 -16,15 -14,45 1,81 15,35 44,76 82,114 38,38 79,67 114,82 36,15 66,17 81,1 16,-15 14,-45 -1,-81 -15,-35 -44,-76 -82,-114zm-115 -79c34,15 75,43 113,81 38,38 66,79 81,114 15,34 17,63 2,77 -14,15 -43,13 -78,-2 -34,-15 -75,-43 -113,-81 -38,-38 -66,-79 -81,-113 -15,-35 -17,-64 -2,-78 14,-15 43,-13 78,2z"/>
     <path class="fil2" d="M1538 1355c-26,-26 -54,-45 -78,-56 -24,-10 -44,-11 -55,-1 -10,11 -9,31 1,55 11,24 30,52 56,78 26,26 54,45 78,56 24,10 44,11 55,1 10,-11 9,-31 -1,-55 -11,-24 -30,-52 -56,-78zm-78 -54c23,10 51,29 77,55 26,26 45,54 55,77 10,24 12,43 2,54 -11,10 -30,8 -54,-2 -23,-10 -51,-29 -77,-55 -26,-26 -45,-54 -55,-77 -10,-24 -12,-43 -2,-53 11,-11 30,-9 54,1z"/>
     <path class="fil2" d="M1525 1368c-17,-17 -35,-30 -51,-37 -16,-6 -29,-7 -36,0 -7,7 -6,20 0,36 7,16 20,34 37,51 17,17 35,30 51,37 16,7 29,7 36,0 7,-7 6,-20 0,-36 -7,-16 -20,-34 -37,-51zm-52 -35c16,6 34,19 51,36 17,17 30,35 36,51 7,15 8,28 1,34 -6,7 -19,6 -34,-1 -16,-6 -34,-19 -51,-36 -17,-17 -30,-35 -36,-51 -7,-15 -8,-28 -1,-34 6,-7 19,-6 34,1z"/>
     <path class="fil2" d="M1515 1379c-10,-10 -21,-18 -30,-22 -9,-4 -17,-4 -21,0 -4,4 -4,12 0,21 4,9 12,20 21,30 10,9 21,17 30,21 9,4 17,4 21,0 4,-4 4,-12 0,-21 -4,-9 -12,-20 -21,-29zm-30 -21c9,4 19,12 29,21 9,10 17,20 21,29 3,9 4,16 0,20 -4,4 -11,3 -20,0 -9,-4 -19,-11 -29,-21 -9,-10 -17,-20 -21,-29 -3,-9 -4,-16 0,-20 4,-4 11,-3 20,0z"/>
    </g>
    <path class="fil3" d="M1507 1021l0 744c10,3 18,13 18,24 0,14 -11,26 -25,26 -14,0 -25,-12 -25,-26 0,-11 8,-21 18,-24l0 -744c-10,-3 -18,-13 -18,-24 0,-14 11,-26 25,-26 14,0 25,12 25,26 0,11 -8,21 -18,24z"/>
   </g>
  </g>
  <polygon class="fil4" points="0,0 3000,0 3000,3000 0,3000 "/>
 </g>
</svg>
